<svg width="60" height="60" viewBox="0 0 60 60" fill="none" xmlns="http://www.w3.org/2000/svg">
<path d="M30 3.33333C24.7258 3.33333 19.5701 4.8973 15.1848 7.82748C10.7995 10.7576 7.38154 14.9224 5.3632 19.7951C3.34487 24.6678 2.81678 30.0296 3.84572 35.2024C4.87466 40.3752 7.41441 45.1268 11.1438 48.8562C14.8732 52.5856 19.6248 55.1253 24.7976 56.1543C29.9704 57.1832 35.3322 56.6551 40.2049 54.6368C45.0776 52.6185 49.2423 49.2005 52.1725 44.8152C55.1027 40.4299 56.6667 35.2742 56.6667 30C56.6667 22.9276 53.8571 16.1448 48.8562 11.1438C43.8552 6.14285 37.0724 3.33333 30 3.33333V3.33333ZM30 53.3333C25.3851 53.3333 20.8738 51.9649 17.0367 49.401C13.1995 46.8371 10.2088 43.1929 8.4428 38.9293C6.67676 34.6657 6.21468 29.9741 7.115 25.4479C8.01532 20.9217 10.2376 16.7641 13.5008 13.5008C16.7641 10.2376 20.9217 8.01533 25.4479 7.11501C29.9741 6.21469 34.6657 6.67677 38.9293 8.44281C43.1929 10.2089 46.8371 13.1995 49.401 17.0367C51.9649 20.8738 53.3333 25.3851 53.3333 30C53.3333 36.1884 50.875 42.1233 46.4992 46.4992C42.1233 50.875 36.1884 53.3333 30 53.3333Z" fill="#FF6347"/>
<path d="M31.5333 30.6667V17.9167C31.5333 17.4746 31.3578 17.0507 31.0452 16.7382C30.7326 16.4256 30.3087 16.25 29.8667 16.25C29.4247 16.25 29.0007 16.4256 28.6882 16.7382C28.3756 17.0507 28.2 17.4746 28.2 17.9167V32.45L38.0333 39.1167C38.2145 39.2529 38.4215 39.3508 38.6418 39.4043C38.862 39.4578 39.0908 39.4658 39.3143 39.4278C39.5377 39.3899 39.7511 39.3067 39.9413 39.1835C40.1316 39.0603 40.2947 38.8995 40.4206 38.7111C40.5466 38.5227 40.6329 38.3106 40.6741 38.0877C40.7153 37.8648 40.7106 37.6359 40.6603 37.4149C40.61 37.1939 40.5152 36.9855 40.3816 36.8024C40.248 36.6193 40.0785 36.4653 39.8833 36.35L31.5333 30.6667Z" fill="#FF6347"/>
<path d="M13.3333 29.9C13.3181 26.9017 14.1168 23.9555 15.6444 21.3755C17.172 18.7955 19.3711 16.6784 22.0072 15.25C24.6434 13.8216 27.6178 13.1354 30.6134 13.2645C33.6089 13.3936 36.5132 14.3333 39.0167 15.9833L40.4333 13.7167C38.0554 12.159 35.362 11.1473 32.5466 10.7543C29.7312 10.3613 26.8637 10.5967 24.1501 11.4437C21.4365 12.2906 18.9441 13.728 16.8521 15.6527C14.76 17.5773 13.1202 19.9414 12.0504 22.5751C10.9806 25.2088 10.5074 28.0468 10.6648 30.8852C10.8221 33.7235 11.6062 36.4917 12.9606 38.9911C14.315 41.4904 16.2061 43.6587 18.4981 45.3403C20.7901 47.0218 23.4261 48.1749 26.2167 48.7167L26.6667 46.1667C22.9133 45.4005 19.5384 43.3649 17.11 40.4022C14.6816 37.4395 13.3479 33.7307 13.3333 29.9V29.9Z" fill="#FF6347"/>
</svg>
