<svg width="60" height="60" viewBox="0 0 60 60" fill="none" xmlns="http://www.w3.org/2000/svg">
<g clip-path="url(#clip0)">
<path d="M46.2167 59.0667C45.6562 59.0651 45.0974 59.0037 44.55 58.8833C34.1277 56.7274 24.526 51.6723 16.85 44.3C9.33778 36.9115 4.12766 27.5043 1.85 17.2167C1.58143 15.9345 1.64735 14.6048 2.04141 13.3555C2.43546 12.1062 3.14439 10.9794 4.1 10.0833L10.7667 3.66667C11.1072 3.34465 11.5118 3.09805 11.954 2.94297C12.3963 2.78789 12.8663 2.72782 13.3333 2.76667C13.8176 2.81719 14.2849 2.97319 14.7024 3.2237C15.12 3.47421 15.4775 3.81314 15.75 4.21667L24.0833 16.5333C24.3958 17.0112 24.5467 17.5768 24.5137 18.1469C24.4807 18.7169 24.2656 19.2614 23.9 19.7L19.7167 24.7C21.3828 28.3874 23.7422 31.7201 26.6667 34.5167C29.5722 37.4147 33.0064 39.7287 36.7833 41.3333L41.9667 37.2167C42.402 36.8726 42.9318 36.6692 43.4855 36.6335C44.0392 36.5978 44.5907 36.7314 45.0667 37.0167L57.65 45.15C58.0818 45.4078 58.4497 45.76 58.7261 46.1802C59.0025 46.6004 59.1802 47.0777 59.2459 47.5763C59.3116 48.0749 59.2637 48.582 59.1057 49.0594C58.9476 49.5369 58.6836 49.9724 58.3333 50.3333L51.8333 56.7667C51.095 57.5014 50.2186 58.0828 49.2547 58.4776C48.2908 58.8723 47.2583 59.0725 46.2167 59.0667V59.0667ZM13.0667 6.06667L6.4 12.4833C5.86242 12.9843 5.46448 13.6165 5.24531 14.3178C5.02614 15.0191 4.99329 15.7655 5.15 16.4833C7.26787 26.1369 12.1362 34.9705 19.1667 41.9167C26.3903 48.8526 35.426 53.6073 45.2333 55.6333C45.9757 55.7885 46.7449 55.7571 47.4721 55.5418C48.1993 55.3266 48.8617 54.9343 49.4 54.4L55.9 47.9667L43.75 40.1167L38.1833 44.55C37.9702 44.7187 37.7191 44.8327 37.4518 44.882C37.1846 44.9314 36.9093 44.9147 36.65 44.8333C32.0278 43.1303 27.8391 40.427 24.3833 36.9167C20.8089 33.5787 18.0344 29.4767 16.2667 24.9167C16.1919 24.6406 16.1894 24.35 16.2595 24.0727C16.3295 23.7954 16.4697 23.5408 16.6667 23.3333L21.1667 17.95L13.0667 6.06667Z" fill="#FF6347"/>
<path d="M30.3536 4.64645C50.3937 8.13055 53.4687 15.5892 56.3536 30.6464" stroke="#FF6347" stroke-width="3"/>
<path d="M30 14.5423C43.1032 16.8203 45.1138 21.6972 47 31.5423" stroke="#FF6347" stroke-width="3"/>
</g>
<defs>
<clipPath id="clip0">
<rect width="60" height="60" fill="white"/>
</clipPath>
</defs>
</svg>
