<svg width="167" height="44" viewBox="0 0 167 44" fill="none" xmlns="http://www.w3.org/2000/svg">
<path d="M46.28 23.78C46.24 22.9 46.04 22.24 45.68 21.8C45.32 21.32 44.66 21.04 43.7 20.96C43.42 21.16 43.04 21.84 42.56 23C42.12 24.12 41.84 25.32 41.72 26.6C41.32 28.52 41.12 30.44 41.12 32.36C41.16 34.32 41.48 35.76 42.08 36.68C42.16 36.84 42.24 36.9 42.32 36.86C42.52 36.86 42.84 36.46 43.28 35.66C45.4 31.82 46.4 27.86 46.28 23.78ZM48.14 35.24L47.24 37.58C47.24 37.66 46.66 38.52 45.5 40.16C45.14 40.92 44.46 41.34 43.46 41.42C42.5 41.5 41.56 41.4 40.64 41.12C39.4 40.68 38.46 40.16 37.82 39.56C37.18 38.96 36.54 37.96 35.9 36.56C35.3 35.12 34.98 33.94 34.94 33.02C34.74 31.7 34.64 30.86 34.64 30.5V29.06C34.64 27.62 34.7 26.78 34.82 26.54C34.86 26.38 34.96 25.96 35.12 25.28C35.32 23.6 35.8 22 36.56 20.48C38.04 17.56 39.56 16.06 41.12 15.98H41.42C41.5 16.02 41.62 16.04 41.78 16.04H42.56C43.96 16.16 44.82 16.28 45.14 16.4C45.74 16.56 46.26 16.64 46.7 16.64L48.26 16.94C48.74 16.9 49.36 17 50.12 17.24C50.92 17.48 51.34 17.66 51.38 17.78C51.46 17.9 51.58 18.34 51.74 19.1C51.9 19.86 52 20.42 52.04 20.78C52.12 21.1 52.18 21.44 52.22 21.8C52.54 24.72 53.06 27.44 53.78 29.96C53.82 30.08 53.86 30.26 53.9 30.5C53.94 30.74 54.08 31.22 54.32 31.94C54.56 32.62 54.74 33.2 54.86 33.68C54.98 34.16 55.2 34.8 55.52 35.6C55.76 36.2 56.12 36.9 56.6 37.7C57.48 38.94 57.02 39.9 55.22 40.58C54.98 40.66 54.56 40.7 53.96 40.7C53.84 40.7 53.46 40.5 52.82 40.1C52.42 40.1 52.04 39.88 51.68 39.44L51.2 39.32C50.92 39.04 50.68 38.9 50.48 38.9C50.4 38.82 49.68 37.2 48.32 34.04C48.2 34.48 48.14 34.88 48.14 35.24ZM74.6398 38.78L74.2798 37.76L73.6198 33.74C73.4198 32.98 73.3198 32.3 73.3198 31.7L73.5598 29.06C73.5598 28.62 73.5798 28.38 73.6198 28.34C73.1398 28.34 72.4198 28.92 71.4598 30.08C71.3798 30.2 71.2598 30.4 71.0998 30.68C69.4198 33.36 68.4198 36.58 68.0998 40.34C67.7798 41.02 67.3598 41.36 66.8398 41.36C65.7598 41.12 65.1598 41 65.0398 41L64.6198 41.06H63.8398C62.9198 40.98 62.3198 40.62 62.0398 39.98C61.8798 39.78 61.7998 39.26 61.7998 38.42V37.58L61.6198 34.28V29.36C61.6198 28.8 61.5798 28.1 61.4998 27.26C61.4198 26.34 61.3998 24.9 61.4398 22.94C61.4798 20.94 61.4598 19.88 61.3798 19.76C61.2998 19.6 61.2598 19.4 61.2598 19.16C61.2598 18.92 61.3198 18.68 61.4398 18.44C61.5598 18.2 62.0998 17.94 63.0598 17.66C63.5798 17.34 64.0198 17.18 64.3798 17.18C64.9398 17.3 65.6598 17.54 66.5398 17.9C67.1398 18.02 67.4398 18.6 67.4398 19.64C67.5198 21.36 67.5198 22.6 67.4398 23.36C67.3998 24.12 67.4198 25.66 67.4998 27.98C70.4598 22.3 73.0998 18.88 75.4198 17.72C75.6198 17.52 75.9198 17.42 76.3198 17.42C76.7198 17.42 77.1798 17.62 77.6998 18.02C78.2198 18.42 78.5798 18.68 78.7798 18.8C78.9798 18.92 79.1998 19.12 79.4398 19.4C79.7198 19.68 79.9398 19.86 80.0998 19.94C80.5798 20.74 80.6798 22.62 80.3998 25.58C80.3598 26.02 80.3198 26.42 80.2798 26.78C80.2398 27.1 80.2198 27.82 80.2198 28.94C80.2198 30.06 80.2398 30.84 80.2798 31.28C80.3998 32.68 80.4598 33.5 80.4598 33.74L80.7598 36.02C81.1598 36.94 81.3598 37.66 81.3598 38.18C81.3998 38.66 81.7598 39.44 82.4398 40.52C82.7198 41.12 82.5998 41.6 82.0798 41.96C81.2798 42.36 80.8398 42.52 80.7598 42.44C80.7198 42.4 80.4998 42.44 80.0998 42.56C79.6998 42.72 78.9798 42.76 77.9398 42.68C77.4198 42.56 76.8998 42.24 76.3798 41.72L75.4798 40.82C75.1598 40.34 74.9398 39.82 74.8198 39.26C74.6198 39.06 74.5598 38.9 74.6398 38.78ZM90.56 2.18C90.6 2.14 90.98 2.08 91.7 2C92.86 1.8 93.66 1.88 94.1 2.24C94.58 2.56 94.92 2.92 95.12 3.32C95.2 4.6 95.02 6.26 94.58 8.3C94.14 9.62 93.76 10.6 93.44 11.24L92.84 12.14C92.72 12.46 92.46 12.8 92.06 13.16C91.66 13.52 91.36 13.7 91.16 13.7C91 13.66 90.7 13.52 90.26 13.28C89.86 13 89.62 12.8 89.54 12.68C89.5 12.56 89.46 12.42 89.42 12.26L89.12 11.06L87.92 9.56C87.68 9.08 87.56 8.6 87.56 8.12C87.44 7 87.58 6.14 87.98 5.54C87.98 5.46 88.04 5.26 88.16 4.94C88.36 4.06 89.16 3.14 90.56 2.18ZM88.76 29.12C88.76 28.76 88.82 28.28 88.94 27.68C89.1 27.04 89.14 26.6 89.06 26.36C89.02 26.12 89.02 25.44 89.06 24.32C89.18 23.84 89.2 23.3 89.12 22.7C88.84 21.82 88.76 21.18 88.88 20.78C89 20.38 89.26 19.94 89.66 19.46C90.06 18.94 90.5 18.58 90.98 18.38C91.46 18.18 92.18 18.2 93.14 18.44C93.38 18.56 93.78 18.96 94.34 19.64C94.46 19.76 94.6 20.22 94.76 21.02C94.96 21.82 95.08 22.7 95.12 23.66C95.2 24.58 95.26 25.94 95.3 27.74C95.34 29.5 95.42 31.88 95.54 34.88C95.66 37.84 95.68 39.68 95.6 40.4C95.56 41.12 95.3 41.66 94.82 42.02C94.38 42.42 93.98 42.5 93.62 42.26C93.3 42.06 92.96 41.92 92.6 41.84C91.96 41.84 91.4 41.58 90.92 41.06C90.76 41.02 90.38 40.84 89.78 40.52C89.18 40.16 88.8 39.52 88.64 38.6C88.44 38.2 88.38 36.9 88.46 34.7V32.54L88.76 30.5V29.12ZM129.163 23.3C129.163 22.94 129.123 22.52 129.043 22.04V21.62C129.083 21.34 129.063 21.04 128.983 20.72C128.983 20.32 129.023 19.96 129.103 19.64C129.103 18.84 129.203 18.32 129.403 18.08C129.403 17.88 129.683 17.42 130.243 16.7C130.403 16.54 130.703 16.28 131.143 15.92C131.783 15.72 132.223 15.6 132.463 15.56C132.623 15.4 133.163 15.46 134.083 15.74C134.483 15.78 135.103 15.92 135.943 16.16C136.223 16.24 136.583 16.56 137.023 17.12C136.943 17.28 136.803 17.88 136.603 18.92C136.443 19.92 136.383 20.74 136.423 21.38C136.663 21.18 137.083 20.76 137.683 20.12C138.283 19.48 138.603 19.14 138.643 19.1C139.683 18.62 140.703 18.28 141.703 18.08C143.143 17.96 144.083 18.06 144.523 18.38C144.883 18.5 145.163 18.68 145.363 18.92C145.723 19.24 146.023 19.8 146.263 20.6C146.503 21.36 146.483 21.84 146.203 22.04C145.963 22.24 145.163 22.4 143.803 22.52C143.723 22.52 143.443 22.68 142.963 23L139.843 25.46C139.203 25.78 138.763 26.06 138.523 26.3L137.383 28.4C137.343 28.48 137.303 29 137.263 29.96C137.223 30.92 137.223 31.62 137.263 32.06C137.303 32.46 137.303 33.8 137.263 36.08V38.66C137.263 40.06 137.243 40.86 137.203 41.06C137.163 41.3 137.003 41.7 136.723 42.26C136.603 42.46 136.223 42.56 135.583 42.56C134.023 43.72 133.023 43.66 132.583 42.38L131.803 41.9C131.483 41.74 131.283 41.54 131.203 41.3C130.883 40.86 130.723 40.6 130.723 40.52L130.483 39.68L130.123 38.96C130.003 38.92 129.903 38.16 129.823 36.68C129.743 35.16 129.703 34.24 129.703 33.92C129.703 33.56 129.663 33.18 129.583 32.78C129.863 32.5 129.983 32.02 129.943 31.34C129.943 30.66 129.903 30.14 129.823 29.78C129.743 29.38 129.743 29.14 129.823 29.06C129.903 28.94 129.883 28.38 129.763 27.38C129.643 27.22 129.623 26.92 129.703 26.48L129.163 23.3ZM160.114 23.3C159.834 21.7 159.054 20.96 157.774 21.08C157.054 21.12 156.434 21.6 155.914 22.52C155.194 23.92 154.874 25.74 154.954 27.98C155.074 30.18 155.234 31.78 155.434 32.78C155.674 33.74 156.074 34.58 156.634 35.3C156.954 35.86 157.434 36.12 158.074 36.08C159.194 36.08 160.014 35.14 160.534 33.26L161.014 31.82C161.214 31.62 161.254 31.42 161.134 31.22C161.534 30.22 161.754 29.04 161.794 27.68C161.394 27.4 161.154 27.14 161.074 26.9C160.834 26.22 160.714 25.76 160.714 25.52C160.434 25.32 160.274 24.94 160.234 24.38C160.194 23.82 160.154 23.46 160.114 23.3ZM149.134 28.94L149.374 25.88C149.654 23.12 150.494 20.76 151.894 18.8C153.254 17.16 155.174 16.32 157.654 16.28H158.014C160.334 16.28 162.014 16.78 163.054 17.78C164.174 18.66 164.994 19.62 165.514 20.66C166.074 21.7 166.434 22.46 166.594 22.94C166.754 23.42 166.854 24.12 166.894 25.04C166.974 26.76 166.634 27.74 165.874 27.98C166.434 31.78 166.094 34.8 164.854 37.04C164.454 37.96 163.874 38.96 163.114 40.04C162.554 40.76 161.554 41.16 160.114 41.24C158.674 41.24 157.414 41.16 156.334 41C155.294 40.84 154.134 40.34 152.854 39.5C151.574 38.62 150.674 37.2 150.154 35.24C149.594 33.36 149.254 31.26 149.134 28.94Z" fill="#292D3A"/>
<path d="M116.574 8.66C115.534 8.06 113.514 7.76 110.514 7.76L110.874 11.48C111.194 13.64 111.474 17.68 111.714 23.6C112.074 23.52 112.314 23.42 112.434 23.3C112.754 23.06 113.094 22.94 113.454 22.94C113.974 22.82 114.474 22.46 114.954 21.86C116.154 20.86 117.074 20.02 117.714 19.34L119.694 17.06C119.814 17.02 120.014 16.58 120.294 15.74C120.574 14.86 120.754 14.14 120.834 13.58C120.834 12.42 120.714 11.76 120.474 11.6C120.474 11.52 120.234 11.02 119.754 10.1C119.594 9.98 119.114 9.68 118.314 9.2L116.574 8.66ZM104.154 1.76L107.514 1.28L111.834 0.979997L114.114 1.28C114.274 1.44 114.654 1.54 115.254 1.58C116.414 1.54 117.974 2.2 119.934 3.56C120.414 3.72 120.814 4 121.134 4.4L123.414 7.16C123.494 7.24 123.614 7.46 123.774 7.82C123.934 8.14 124.154 8.52 124.434 8.96C124.354 8.96 124.414 9.12 124.614 9.44C125.134 10.32 125.374 10.84 125.334 11C125.534 11.16 125.734 11.68 125.934 12.56C126.134 13.44 126.194 14.04 126.114 14.36C126.154 14.4 126.114 14.86 125.994 15.74C125.714 17.66 125.214 19.08 124.494 20L123.714 21.44L122.394 23.36L121.614 24.08C120.174 25.68 118.414 26.92 116.334 27.8C116.254 27.84 116.134 27.88 115.974 27.92L114.534 28.4L112.194 29C112.194 30.16 112.334 32.84 112.614 37.04C112.774 38.48 112.894 39.28 112.974 39.44C112.974 40.76 112.894 41.64 112.734 42.08C112.574 42.56 112.314 42.9 111.954 43.1C111.594 43.34 110.974 43.48 110.094 43.52C109.854 43.6 109.434 43.52 108.834 43.28C108.234 43.08 107.754 42.76 107.394 42.32L107.034 40.4C107.114 40.32 106.994 39.94 106.674 39.26C106.394 38.94 106.174 38.38 106.014 37.58L105.594 31.88L105.534 29.96C103.214 30.12 101.814 29.48 101.334 28.04C100.934 27.28 100.854 26.78 101.094 26.54L101.394 25.76C101.874 25 102.794 24.62 104.154 24.62H105.414C105.334 24.54 105.294 24.26 105.294 23.78L105.054 21.26V20.18L104.994 19.4C105.034 19.04 105.014 18.64 104.934 18.2V17.84L104.814 16.34V15.2L104.754 14.6C104.754 11.76 104.594 9.96 104.274 9.2C102.954 9.96 102.074 10.38 101.634 10.46C101.194 10.5 100.454 10.2 99.4138 9.56C98.9738 9.2 98.7338 8.8 98.6938 8.36C97.9737 7.36 97.7337 6.54 97.9737 5.9C98.0537 5.58 98.3738 5.08 98.9338 4.4C98.9738 4.24 99.4538 3.88 100.374 3.32C101.094 2.6 102.354 2.08 104.154 1.76Z" fill="#FF6347"/>
<path d="M2.64492e-07 10.4869C4.25458 8.50294 9.31191 10.3437 11.2959 14.5982L20.9296 35.2579C21.9216 37.3852 21.0012 39.9139 18.8739 40.9058C16.7466 41.8978 14.218 40.9774 13.226 38.8502L2.64492e-07 10.4869Z" fill="#FF6347"/>
<path d="M23.32 15.0323C25.3397 10.7009 30.4884 8.82699 34.8198 10.8468L21.355 39.7221C20.3451 41.8878 17.7708 42.8248 15.6051 41.8149C13.4394 40.805 12.5024 38.2307 13.5123 36.065L23.32 15.0323Z" fill="#292D3A"/>
</svg>
