<svg width="112" height="120" viewBox="0 0 112 120" fill="none" xmlns="http://www.w3.org/2000/svg">
<g clip-path="url(#clip0)">
<mask id="path-1-inside-1" fill="white">
<path d="M84.3723 106.397C74.4385 112.509 62.819 115.304 51.1925 114.38C39.566 113.455 28.5344 108.858 19.6914 101.254C10.8484 93.6489 4.65172 83.43 1.99667 72.073C-0.658387 60.716 0.365604 48.8091 4.92072 38.0721C9.47583 27.3352 17.3262 18.3243 27.3378 12.3411C37.3494 6.35795 49.0038 3.71228 60.6174 4.78632C72.2311 5.86036 83.2027 10.5985 91.9472 18.3163C100.692 26.034 106.756 36.3318 109.265 47.722L82.2665 53.6687C81.0187 48.0038 78.0024 42.8822 73.6534 39.0438C69.3043 35.2054 63.8476 32.8489 58.0716 32.3147C52.2956 31.7805 46.4993 33.0963 41.52 36.0721C36.5408 39.0478 32.6364 43.5294 30.3709 48.8693C28.1054 54.2093 27.5962 60.1312 28.9167 65.7796C30.2371 71.428 33.319 76.5104 37.7171 80.2925C42.1152 84.0747 47.6017 86.3608 53.3841 86.8207C59.1665 87.2805 64.9455 85.8903 69.886 82.8508L84.3723 106.397Z"/>
</mask>
<path d="M84.3723 106.397C74.4385 112.509 62.819 115.304 51.1925 114.38C39.566 113.455 28.5344 108.858 19.6914 101.254C10.8484 93.6489 4.65172 83.43 1.99667 72.073C-0.658387 60.716 0.365604 48.8091 4.92072 38.0721C9.47583 27.3352 17.3262 18.3243 27.3378 12.3411C37.3494 6.35795 49.0038 3.71228 60.6174 4.78632C72.2311 5.86036 83.2027 10.5985 91.9472 18.3163C100.692 26.034 106.756 36.3318 109.265 47.722L82.2665 53.6687C81.0187 48.0038 78.0024 42.8822 73.6534 39.0438C69.3043 35.2054 63.8476 32.8489 58.0716 32.3147C52.2956 31.7805 46.4993 33.0963 41.52 36.0721C36.5408 39.0478 32.6364 43.5294 30.3709 48.8693C28.1054 54.2093 27.5962 60.1312 28.9167 65.7796C30.2371 71.428 33.319 76.5104 37.7171 80.2925C42.1152 84.0747 47.6017 86.3608 53.3841 86.8207C59.1665 87.2805 64.9455 85.8903 69.886 82.8508L84.3723 106.397Z" stroke="#FF6347" stroke-width="8" mask="url(#path-1-inside-1)"/>
<line x1="84.1884" y1="65.5861" x2="111.188" y2="60.5861" stroke="#FF6347" stroke-width="4"/>
<line x1="79.2167" y1="76.4432" x2="93.2167" y2="97.4432" stroke="#FF6347" stroke-width="4"/>
</g>
<defs>
<clipPath id="clip0">
<rect width="112" height="120" fill="white"/>
</clipPath>
</defs>
</svg>
